<svg width="30" height="30" viewBox="0 0 30 30" fill="none" xmlns="http://www.w3.org/2000/svg">
<path d="M2.5 5V22.5L8.5 18C8.93227 17.6745 9.45891 17.499 10 17.5H20C21.3807 17.5 22.5 16.3807 22.5 15V5C22.5 3.61929 21.3807 2.5 20 2.5H5C3.61929 2.5 2.5 3.61929 2.5 5ZM5 17.5V5H20V15H9.1675C8.62634 14.9985 8.09956 15.1741 7.6675 15.5L5 17.5Z" fill="white"/>
<path d="M27.5 27.5V11.25C27.5 9.86929 26.3807 8.75 25 8.75V22.5L22.3325 20.5C21.9004 20.1741 21.3737 19.9985 20.8325 20H8.75C8.75 21.3807 9.86929 22.5 11.25 22.5H20C20.5411 22.499 21.0677 22.6746 21.5 23L27.5 27.5Z" fill="white"/>
</svg>
