<svg width="30" height="30" viewBox="0 0 30 30" fill="none" xmlns="http://www.w3.org/2000/svg">
<path d="M20 25H6.25C5.55964 25 5 24.4404 5 23.75V13.925C5 13.6008 5.12595 13.2893 5.35125 13.0563L12.2263 5.93126C12.4618 5.68722 12.7864 5.54938 13.1256 5.54938C13.4648 5.54938 13.7894 5.68722 14.025 5.93126L16.0888 8.07251L14.2975 9.81501L13.125 8.60001L7.5 14.425V22.4938H21.25V23.7438C21.2517 24.0764 21.1207 24.3959 20.8861 24.6317C20.6515 24.8675 20.3326 25 20 25ZM21.25 20H18.75V16.25H15V13.75H18.75V10H21.25V13.75H25V16.25H21.25V20Z" fill="white"/>
</svg>
